<svg xmlns="http://www.w3.org/2000/svg" width="240" height="234" viewBox="0 0 240 234">
  <defs>
    <style>
      .cls-1 {
        fill: #1e3101;
      }

      .cls-2 {
        fill: #99e83f;
      }
    </style>
  </defs>
  <g id="Layer_2" data-name="Layer 2">
    <g id="Layer_1-2" data-name="Layer 1">
      <g id="Surfaces">
        <g id="_3D_Substance_Surface" data-name=" 3D Substance Surface">
          <g id="Outline_no_shadow" data-name="Outline no shadow">
            <rect class="cls-1" width="240" height="234" rx="42.5"/>
          </g>
        </g>
      </g>
      <g id="Outlined_Mnemonics_Logos" data-name="Outlined Mnemonics Logos">
        <g id="Dn">
          <g>
            <path class="cls-2" d="M34.97778,163.77319V61.3772a1.17278,1.17278,0,0,1,1.05131-1.2828q.03776-.00375.07569-.005,2.41481-.1586,7.084-.24146,4.66771-.07947,10.94775-.16113,6.27906-.07911,13.36328-.08057,19.31982,0,32.03905,6.60108A44.58828,44.58828,0,0,1,118.617,84.31982q6.35814,11.51257,6.35985,26.48438a59.07732,59.07732,0,0,1-3.30078,20.52759A47.88714,47.88714,0,0,1,112.66,146.70728a53.61133,53.61133,0,0,1-12.96045,10.70654,57.00708,57.00708,0,0,1-15.45606,6.27905,68.03859,68.03859,0,0,1-16.26075,2.01245H55.988q-6.3618,0-11.83349-.08056-5.47486-.08313-8.21094-.24146Q34.97754,165.3833,34.97778,163.77319Zm22.21777-84.364v66.65406q1.76954,0,3.22022.08056,1.44873.08313,2.97851.16089,1.52784.08313,3.46143.08057a43.12512,43.12512,0,0,0,14.3291-2.25391,29.30988,29.30988,0,0,0,11.02832-6.762,30.37224,30.37224,0,0,0,7.084-11.10913,42.13525,42.13525,0,0,0,2.4956-14.9729,37.78344,37.78344,0,0,0-2.415-14.08764,26.67043,26.67043,0,0,0-7.00342-10.14283A28.67469,28.67469,0,0,0,81.426,81.01929,47.74593,47.74593,0,0,0,67.49975,79.0874q-3.22266,0-5.39355.08032-2.17383.08313-4.91065.24146Z"/>
            <path class="cls-2" d="M134.81664,163.93433V104.04224q0-2.7356-.08057-6.11792-.08274-3.38086-.24169-6.43994-.16187-3.05678-.32177-4.83008a.95619.95619,0,0,1,.16113-.96608,1.31231,1.31231,0,0,1,.96582-.322H152.0437a3.59694,3.59694,0,0,1,1.60986.322,1.51693,1.51693,0,0,1,.80518,1.127q.3208.96606.72461,2.17358a13.55511,13.55511,0,0,1,.56348,2.97852,32.335,32.335,0,0,1,10.626-6.19849,36.56883,36.56883,0,0,1,12.07471-2.01245,30.625,30.625,0,0,1,9.41846,1.52954,23.7947,23.7947,0,0,1,15.21484,14.812q2.41482,6.19959,2.415,16.01928v47.81714q0,1.44911-1.28808,1.449h-19.481a1.42267,1.42267,0,0,1-1.61036-1.61011V118.04932a20.11093,20.11093,0,0,0-1.44873-8.21094,11.50711,11.50711,0,0,0-4.10547-4.991,12.11626,12.11626,0,0,0-6.84277-1.771,20.03281,20.03281,0,0,0-7.56689,1.3684,19.09869,19.09869,0,0,0-5.957,3.78345v55.70605q0,1.44909-1.28809,1.449H136.26537a1.28054,1.28054,0,0,1-1.44873-1.449Z"/>
          </g>
        </g>
      </g>
    </g>
  </g>
</svg>
