<?xml version="1.0" encoding="utf-8"?>
<!-- Generator: Adobe Illustrator 25.4.1, SVG Export Plug-In . SVG Version: 6.00 Build 0)  -->
<svg version="1.1" id="Layer_1" xmlns="http://www.w3.org/2000/svg" xmlns:xlink="http://www.w3.org/1999/xlink" x="0px" y="0px"
	 viewBox="0 0 240 234" style="enable-background:new 0 0 240 234;" xml:space="preserve">
<style type="text/css">
	.st0{fill:#101933;}
	.st1{fill-rule:evenodd;clip-rule:evenodd;fill:#5DA9DD;}
	.st2{opacity:0.6;fill:#5DA9DD;}
</style>
<g id="Layer_2_1_">
	<g id="Photo_Surface">
		<g id="Outline_no_shadow">
			<path class="st0" d="M42.5,0h155C221,0,240,19,240,42.5v149c0,23.5-19,42.5-42.5,42.5h-155C19,234,0,215,0,191.5v-149
				C0,19,19,0,42.5,0z"/>
		</g>
	</g>
</g>
<g>
	<path class="st1" d="M118.4,128.8l13.8,25.6c10.8-3.7,19.7-12,23.8-22.5l1.1-3L118.4,128.8z M120.2,102.8l-12.9-23.4
		c-10.7,3.6-19.4,12.8-23.6,23.3l0.4,0.2L120.2,102.8z M107.3,122.5l-13.1,22.9c6.8,6,15.5,9.9,25.2,9.9c2,0,4.6-0.4,6.5-0.6
		l0.2-0.4L107.3,122.5z M132,110l13.1-22.6c-6.8-6-15.7-9.7-25.5-9.7c-1.9,0-3.8,0.2-5.7,0.5l-0.2,0.4L132,110z M108.1,109H81.7
		c-0.5,2.5-0.8,4.7-0.8,7.4c0,9.1,3.1,17.4,8.4,24l0.6,0.4L108.1,109z M131,122.7h26.7c0.5-2.5,0.6-4.2,0.6-6.8
		c0-9.1-3.2-17-8.4-23.6l-0.5-0.4L131,122.7z"/>
	<path class="st2" d="M142.7,214.9c-2.4,0-4.7-0.6-6.7-1.7L26.3,152.1c-3.2-1.8-5.5-4.7-6.4-8.2c-0.9-3.5-0.4-7.1,1.4-10.2l64-107.8
		c2.5-4.2,7.1-6.8,12.1-6.8c2.3,0,4.7,0.6,6.7,1.7l109.7,61.1c3.2,1.8,5.5,4.7,6.4,8.2c0.9,3.5,0.4,7.1-1.4,10.3l-64,107.8
		C152.2,212.3,147.6,214.9,142.7,214.9z M97.3,29.1c-1.4,0-2.8,0.7-3.5,1.9l-64,107.8c-0.5,0.8-0.6,1.7-0.4,2.5
		c0.2,0.9,0.8,1.6,1.6,2.1l109.7,61.1c0.6,0.3,1.2,0.5,1.8,0.5c1.4,0,2.7-0.7,3.4-1.9l64-107.8c0.5-0.8,0.6-1.7,0.4-2.5
		c-0.2-0.9-0.8-1.6-1.6-2.1L99.2,29.5C98.6,29.2,98,29.1,97.3,29.1z"/>
</g>
</svg>
