<svg xmlns="http://www.w3.org/2000/svg" viewBox="0 0 256 256">
  <defs>
    <style>
      .cls-1 {
        fill: #00005b;
      }

      .cls-2, .cls-3 {
        fill: #99f;
      }

      .cls-2 {
        fill-rule: evenodd;
      }

      .cls-3 {
        opacity: 0.6;
      }
    </style>
  </defs>
  <g id="Surfaces">
    <g id="Video_Audio_Surface" data-name="Video/Audio Surface">
      <g id="Outline_no_shadow" data-name="Outline no shadow">
        <rect class="cls-1" x="8" y="4" width="240" height="234" rx="42.5"/>
      </g>
    </g>
  </g>
  <g id="Outlined_Mnemonics_Logos" data-name="Outlined Mnemonics &amp; Logos">
    <g id="Pr_Elements" data-name="Pr Elements">
      <g>
        <g id="Group_1427" data-name="Group 1427">
          <path id="Path_1956" data-name="Path 1956" class="cls-2" d="M128.18593,77.93605a41.84827,41.84827,0,1,0,41.84828,41.84828A41.84826,41.84826,0,0,0,128.18593,77.93605Zm23.17768,44.629-36.88833,19.83629c-2.41983,1.45049-4.355.24057-4.47528-2.54013V100.06832c0-2.78069,1.93515-3.9906,4.47528-2.54012l36.88833,19.95655C153.90373,118.93878,153.90373,121.2348,151.36361,122.565Z"/>
        </g>
        <path class="cls-3" d="M151.00254,219.0782a13.87077,13.87077,0,0,1-6.75481-1.75038L33.87447,155.823a13.401,13.401,0,0,1-5.03687-18.54354L93.226,28.7981A14.1528,14.1528,0,0,1,105.36261,21.975a13.94422,13.94422,0,0,1,6.746,1.73564l110.389,61.51907a13.39842,13.39842,0,0,1,5.01918,18.56664l-64.407,108.46514A14.08407,14.08407,0,0,1,151.00254,219.0782ZM105.36261,32.03889a4.096,4.096,0,0,0-3.48649,1.9032L37.502,142.39987a3.27769,3.27769,0,0,0-.35578,2.55823,3.3163,3.3163,0,0,0,1.632,2.07667l110.37375,61.50581a3.8009,3.8009,0,0,0,1.85062.47371,3.98627,3.98627,0,0,0,3.44964-1.883l64.412-108.473a3.26271,3.26271,0,0,0,.3597-2.5661,3.316,3.316,0,0,0-1.63047-2.0747L107.21962,32.5072A3.84292,3.84292,0,0,0,105.36261,32.03889Z"/>
      </g>
    </g>
  </g>
</svg>
